<?xml version="1.0" encoding="UTF-8" standalone="no"?>
<!-- Created with Inkscape (http://www.inkscape.org/) -->

<svg
   xmlns:osb="http://www.openswatchbook.org/uri/2009/osb"
   xmlns:dc="http://purl.org/dc/elements/1.1/"
   xmlns:cc="http://creativecommons.org/ns#"
   xmlns:rdf="http://www.w3.org/1999/02/22-rdf-syntax-ns#"
   xmlns:svg="http://www.w3.org/2000/svg"
   xmlns="http://www.w3.org/2000/svg"
   xmlns:sodipodi="http://sodipodi.sourceforge.net/DTD/sodipodi-0.dtd"
   xmlns:inkscape="http://www.inkscape.org/namespaces/inkscape"
   width="342.20084mm"
   height="302.2081mm"
   viewBox="0 0 342.20083 302.2081"
   version="1.1"
   id="svg8"
   inkscape:version="0.92.4 (5da689c313, 2019-01-14)"
   sodipodi:docname="HighLevelProjectStructure.svg">
  <defs
     id="defs2">
    <linearGradient
       id="linearGradient2658"
       osb:paint="solid">
      <stop
         style="stop-color:#000000;stop-opacity:1;"
         offset="0"
         id="stop2656" />
    </linearGradient>
  </defs>
  <sodipodi:namedview
     id="base"
     pagecolor="#ffffff"
     bordercolor="#666666"
     borderopacity="1.0"
     inkscape:pageopacity="1"
     inkscape:pageshadow="2"
     inkscape:zoom="0.62"
     inkscape:cx="447.7974"
     inkscape:cy="422.52396"
     inkscape:document-units="mm"
     inkscape:current-layer="layer1"
     showgrid="false"
     showguides="false"
     fit-margin-top="10"
     fit-margin-left="10"
     fit-margin-right="10"
     fit-margin-bottom="10"
     inkscape:window-width="1366"
     inkscape:window-height="705"
     inkscape:window-x="-8"
     inkscape:window-y="-8"
     inkscape:window-maximized="1" />
  <metadata
     id="metadata5">
    <rdf:RDF>
      <cc:Work
         rdf:about="">
        <dc:format>image/svg+xml</dc:format>
        <dc:type
           rdf:resource="http://purl.org/dc/dcmitype/StillImage" />
        <dc:title></dc:title>
      </cc:Work>
    </rdf:RDF>
  </metadata>
  <g
     inkscape:label="Layer 1"
     inkscape:groupmode="layer"
     id="layer1"
     transform="translate(5.9040432,-7.9072647)">
    <rect
       style="opacity:1;fill:#ffffff;fill-opacity:1;fill-rule:nonzero;stroke:none;stroke-width:1.2353127;stroke-miterlimit:4;stroke-dasharray:none;stroke-dashoffset:37.79527664;stroke-opacity:1;paint-order:markers fill stroke"
       id="rect2867"
       width="78.259041"
       height="22.695206"
       x="4.0959568"
       y="17.907265" />
    <rect
       style="opacity:1;fill:#1a1a1a;fill-opacity:1;fill-rule:nonzero;stroke:#ffffff;stroke-width:0.30000001;stroke-linecap:round;stroke-linejoin:bevel;stroke-miterlimit:4;stroke-dasharray:none;stroke-opacity:1;paint-order:markers fill stroke"
       id="rect815"
       width="96.265282"
       height="23.813532"
       x="57.118347"
       y="44.430771" />
    <rect
       style="opacity:1;fill:#1a1a1a;fill-opacity:1;fill-rule:nonzero;stroke:#ffffff;stroke-width:0.34456792;stroke-linecap:round;stroke-linejoin:bevel;stroke-miterlimit:4;stroke-dasharray:none;stroke-opacity:1;paint-order:markers fill stroke"
       id="rect815-7"
       width="180.18542"
       height="206.01141"
       x="17.063917"
       y="93.931679" />
    <text
       xml:space="preserve"
       style="font-style:normal;font-weight:normal;font-size:6.00835705px;line-height:1.25;font-family:sans-serif;letter-spacing:0px;word-spacing:0px;fill:#ffffff;fill-opacity:1;stroke:none;stroke-width:0.15020892"
       x="75.360435"
       y="239.01247"
       id="text819-4"><tspan
         sodipodi:role="line"
         id="tspan817-3"
         x="75.360435"
         y="239.01247"
         style="font-style:normal;font-variant:normal;font-weight:normal;font-stretch:normal;font-family:HelveticaNeue;-inkscape-font-specification:HelveticaNeue;fill:#ffffff;stroke-width:0.15020892">Backend Node.JS</tspan></text>
    <rect
       style="opacity:1;fill:#4d4d4d;fill-opacity:1;fill-rule:nonzero;stroke:none;stroke-width:6.17395449;stroke-linecap:round;stroke-linejoin:bevel;stroke-miterlimit:4;stroke-dasharray:none;stroke-opacity:0.47843137;paint-order:markers fill stroke"
       id="rect842"
       width="105.35699"
       height="26.740355"
       x="53.408554"
       y="99.792282" />
    <text
       xml:space="preserve"
       style="font-style:normal;font-weight:normal;font-size:6.00835705px;line-height:1.25;font-family:sans-serif;letter-spacing:0px;word-spacing:0px;fill:#ffffff;fill-opacity:1;stroke:none;stroke-width:0.15020892"
       x="79.452431"
       y="57.275887"
       id="text819-9"><tspan
         sodipodi:role="line"
         id="tspan817-9"
         x="79.452431"
         y="57.275887"
         style="font-style:normal;font-variant:normal;font-weight:normal;font-stretch:normal;font-family:HelveticaNeue;-inkscape-font-specification:HelveticaNeue;fill:#ffffff;stroke-width:0.15020892">Front-end web app</tspan></text>
    <text
       xml:space="preserve"
       style="font-style:normal;font-weight:normal;font-size:6.00835705px;line-height:1.25;font-family:sans-serif;letter-spacing:0px;word-spacing:0px;fill:#ffffff;fill-opacity:1;stroke:none;stroke-width:0.15020892"
       x="103.54044"
       y="115.89404"
       id="text819"><tspan
         sodipodi:role="line"
         id="tspan817"
         x="103.54044"
         y="115.89404"
         style="font-style:normal;font-variant:normal;font-weight:normal;font-stretch:normal;font-family:HelveticaNeue;-inkscape-font-specification:HelveticaNeue;fill:#ffffff;stroke-width:0.15020892">API</tspan></text>
    <rect
       style="opacity:1;fill:#4d4d4d;fill-opacity:1;fill-rule:nonzero;stroke:none;stroke-width:14.834589;stroke-linecap:round;stroke-linejoin:bevel;stroke-miterlimit:4;stroke-dasharray:none;stroke-opacity:0.47843137;paint-order:markers fill stroke"
       id="rect842-2"
       width="161.51173"
       height="100.70494"
       x="25.940739"
       y="177.73253" />
    <text
       xml:space="preserve"
       style="font-style:normal;font-weight:normal;font-size:6.00835705px;line-height:1.25;font-family:sans-serif;letter-spacing:0px;word-spacing:0px;fill:#ffffff;fill-opacity:1;stroke:none;stroke-width:0.15020892"
       x="95.196632"
       y="292.59622"
       id="text819-3"><tspan
         sodipodi:role="line"
         id="tspan817-7"
         x="95.196632"
         y="292.59622"
         style="font-style:normal;font-variant:normal;font-weight:normal;font-stretch:normal;font-family:HelveticaNeue;-inkscape-font-specification:HelveticaNeue;fill:#ffffff;stroke-width:0.15020892">Backend</tspan></text>
    <rect
       style="opacity:1;fill:#666666;fill-opacity:1;fill-rule:nonzero;stroke:none;stroke-width:9.14422512;stroke-linecap:round;stroke-linejoin:bevel;stroke-miterlimit:4;stroke-dasharray:none;stroke-opacity:0.47843137;paint-order:markers fill stroke"
       id="rect883"
       width="51.143562"
       height="78.08519"
       x="27.524109"
       y="196.20831" />
    <text
       xml:space="preserve"
       style="font-style:normal;font-weight:normal;font-size:6.00835705px;line-height:1.25;font-family:sans-serif;letter-spacing:0px;word-spacing:0px;fill:#ffffff;fill-opacity:1;stroke:none;stroke-width:0.15020892"
       x="37.311096"
       y="204.66208"
       id="text819-40"><tspan
         sodipodi:role="line"
         x="37.311096"
         y="204.66208"
         style="font-style:normal;font-variant:normal;font-weight:normal;font-stretch:normal;font-family:HelveticaNeue;-inkscape-font-specification:HelveticaNeue;fill:#ffffff;stroke-width:0.15020892"
         id="tspan909">User data</tspan></text>
    <rect
       style="opacity:1;fill:#999999;fill-opacity:1;fill-rule:nonzero;stroke:none;stroke-width:4.47598791;stroke-linecap:round;stroke-linejoin:bevel;stroke-miterlimit:4;stroke-dasharray:none;stroke-opacity:0.47843137;paint-order:markers fill stroke"
       id="rect911"
       width="41.124016"
       height="20.003027"
       x="31.742508"
       y="207.56232" />
    <text
       xml:space="preserve"
       style="font-style:normal;font-weight:normal;font-size:6.00835705px;line-height:1.25;font-family:sans-serif;letter-spacing:0px;word-spacing:0px;fill:#ffffff;fill-opacity:1;stroke:none;stroke-width:0.15020892"
       x="33.606567"
       y="216.25435"
       id="text819-40-9"><tspan
         sodipodi:role="line"
         x="33.606567"
         y="216.25435"
         style="font-style:normal;font-variant:normal;font-weight:normal;font-stretch:normal;font-family:HelveticaNeue;-inkscape-font-specification:HelveticaNeue;fill:#ffffff;stroke-width:0.15020892"
         id="tspan936">Saved places </tspan><tspan
         sodipodi:role="line"
         x="33.606567"
         y="223.94467"
         style="font-style:normal;font-variant:normal;font-weight:normal;font-stretch:normal;font-family:HelveticaNeue;-inkscape-font-specification:HelveticaNeue;fill:#ffffff;stroke-width:0.15020892"
         id="tspan938">&amp; routes</tspan></text>
    <rect
       style="opacity:1;fill:#999999;fill-opacity:1;fill-rule:nonzero;stroke:none;stroke-width:3.63259935;stroke-linecap:round;stroke-linejoin:bevel;stroke-miterlimit:4;stroke-dasharray:none;stroke-opacity:0.47843137;paint-order:markers fill stroke"
       id="rect911-3"
       width="41.124016"
       height="13.17507"
       x="31.876694"
       y="228.63562" />
    <text
       xml:space="preserve"
       style="font-style:normal;font-weight:normal;font-size:6.00835705px;line-height:1.25;font-family:sans-serif;letter-spacing:0px;word-spacing:0px;fill:#ffffff;fill-opacity:1;stroke:none;stroke-width:0.15020892"
       x="33.740753"
       y="237.32767"
       id="text819-40-9-6"><tspan
         sodipodi:role="line"
         x="33.740753"
         y="237.32767"
         style="font-style:normal;font-variant:normal;font-weight:normal;font-stretch:normal;font-family:HelveticaNeue;-inkscape-font-specification:HelveticaNeue;fill:#ffffff;stroke-width:0.15020892"
         id="tspan938-6">User info</tspan></text>
    <rect
       style="opacity:1;fill:#666666;fill-opacity:1;fill-rule:nonzero;stroke:none;stroke-width:9.14422512;stroke-linecap:round;stroke-linejoin:bevel;stroke-miterlimit:4;stroke-dasharray:none;stroke-opacity:0.47843137;paint-order:markers fill stroke"
       id="rect883-8"
       width="51.143562"
       height="78.08519"
       x="81.336945"
       y="195.97592" />
    <text
       xml:space="preserve"
       style="font-style:normal;font-weight:normal;font-size:6.00835705px;line-height:1.25;font-family:sans-serif;letter-spacing:0px;word-spacing:0px;fill:#ffffff;fill-opacity:1;stroke:none;stroke-width:0.15020892"
       x="91.653114"
       y="204.42969"
       id="text819-40-92"><tspan
         sodipodi:role="line"
         x="91.653114"
         y="204.42969"
         style="font-style:normal;font-variant:normal;font-weight:normal;font-stretch:normal;font-family:HelveticaNeue;-inkscape-font-specification:HelveticaNeue;fill:#ffffff;stroke-width:0.15020892"
         id="tspan909-0">Map data</tspan></text>
    <rect
       style="opacity:1;fill:#999999;fill-opacity:1;fill-rule:nonzero;stroke:none;stroke-width:5.18393278;stroke-linecap:round;stroke-linejoin:bevel;stroke-miterlimit:4;stroke-dasharray:none;stroke-opacity:0.47843137;paint-order:markers fill stroke"
       id="rect911-4"
       width="41.124016"
       height="26.830982"
       x="85.555344"
       y="207.32993" />
    <text
       xml:space="preserve"
       style="font-style:normal;font-weight:normal;font-size:6.00835705px;line-height:1.25;font-family:sans-serif;letter-spacing:0px;word-spacing:0px;fill:#ffffff;fill-opacity:1;stroke:none;stroke-width:0.15020892"
       x="87.419411"
       y="216.02196"
       id="text819-40-9-61"><tspan
         sodipodi:role="line"
         x="87.419411"
         y="216.02196"
         style="font-style:normal;font-variant:normal;font-weight:normal;font-stretch:normal;font-family:HelveticaNeue;-inkscape-font-specification:HelveticaNeue;fill:#ffffff;stroke-width:0.15020892"
         id="tspan938-9">Imported</tspan><tspan
         sodipodi:role="line"
         x="87.419411"
         y="223.71228"
         style="font-style:normal;font-variant:normal;font-weight:normal;font-stretch:normal;font-family:HelveticaNeue;-inkscape-font-specification:HelveticaNeue;fill:#ffffff;stroke-width:0.15020892"
         id="tspan1022">OpenStreet</tspan><tspan
         sodipodi:role="line"
         x="87.419411"
         y="231.40259"
         style="font-style:normal;font-variant:normal;font-weight:normal;font-stretch:normal;font-family:HelveticaNeue;-inkscape-font-specification:HelveticaNeue;fill:#ffffff;stroke-width:0.15020892"
         id="tspan1018">-Map data</tspan></text>
    <rect
       style="opacity:1;fill:#999999;fill-opacity:1;fill-rule:nonzero;stroke:none;stroke-width:4.33038235;stroke-linecap:round;stroke-linejoin:bevel;stroke-miterlimit:4;stroke-dasharray:none;stroke-opacity:0.47843137;paint-order:markers fill stroke"
       id="rect911-3-0"
       width="41.124016"
       height="18.722784"
       x="85.689529"
       y="235.2823" />
    <text
       xml:space="preserve"
       style="font-style:normal;font-weight:normal;font-size:6.00835705px;line-height:1.25;font-family:sans-serif;letter-spacing:0px;word-spacing:0px;fill:#ffffff;fill-opacity:1;stroke:none;stroke-width:0.15020892"
       x="87.553604"
       y="243.97435"
       id="text819-40-9-6-3"><tspan
         sodipodi:role="line"
         x="87.553604"
         y="243.97435"
         style="font-style:normal;font-variant:normal;font-weight:normal;font-stretch:normal;font-family:HelveticaNeue;-inkscape-font-specification:HelveticaNeue;fill:#ffffff;stroke-width:0.15020892"
         id="tspan938-6-4">Custom map</tspan><tspan
         sodipodi:role="line"
         x="87.553604"
         y="251.66467"
         style="font-style:normal;font-variant:normal;font-weight:normal;font-stretch:normal;font-family:HelveticaNeue;-inkscape-font-specification:HelveticaNeue;fill:#ffffff;stroke-width:0.15020892"
         id="tspan1020">data</tspan></text>
    <rect
       style="opacity:1;fill:#666666;fill-opacity:1;fill-rule:nonzero;stroke:none;stroke-width:9.14422512;stroke-linecap:round;stroke-linejoin:bevel;stroke-miterlimit:4;stroke-dasharray:none;stroke-opacity:0.47843137;paint-order:markers fill stroke"
       id="rect883-8-4"
       width="51.143562"
       height="78.08519"
       x="134.59723"
       y="195.97592" />
    <text
       xml:space="preserve"
       style="font-style:normal;font-weight:normal;font-size:6.00835705px;line-height:1.25;font-family:sans-serif;letter-spacing:0px;word-spacing:0px;fill:#ffffff;fill-opacity:1;stroke:none;stroke-width:0.15020892"
       x="141.27136"
       y="204.93503"
       id="text819-40-92-2"><tspan
         sodipodi:role="line"
         x="141.27136"
         y="204.93503"
         style="font-style:normal;font-variant:normal;font-weight:normal;font-stretch:normal;font-family:HelveticaNeue;-inkscape-font-specification:HelveticaNeue;fill:#ffffff;stroke-width:0.15020892"
         id="tspan909-0-9">Cached data</tspan></text>
    <rect
       style="opacity:1;fill:#999999;fill-opacity:1;fill-rule:nonzero;stroke:none;stroke-width:4.47598791;stroke-linecap:round;stroke-linejoin:bevel;stroke-miterlimit:4;stroke-dasharray:none;stroke-opacity:0.47843137;paint-order:markers fill stroke"
       id="rect911-8"
       width="41.124016"
       height="20.003027"
       x="139.46823"
       y="209.12495" />
    <text
       xml:space="preserve"
       style="font-style:normal;font-weight:normal;font-size:6.00835705px;line-height:1.25;font-family:sans-serif;letter-spacing:0px;word-spacing:0px;fill:#ffffff;fill-opacity:1;stroke:none;stroke-width:0.15020892"
       x="147.68221"
       y="217.81699"
       id="text819-40-9-1"><tspan
         sodipodi:role="line"
         x="147.68221"
         y="217.81699"
         style="font-style:normal;font-variant:normal;font-weight:normal;font-stretch:normal;font-family:HelveticaNeue;-inkscape-font-specification:HelveticaNeue;fill:#ffffff;stroke-width:0.15020892"
         id="tspan938-1">Cached </tspan><tspan
         sodipodi:role="line"
         x="147.68221"
         y="225.50731"
         style="font-style:normal;font-variant:normal;font-weight:normal;font-stretch:normal;font-family:HelveticaNeue;-inkscape-font-specification:HelveticaNeue;fill:#ffffff;stroke-width:0.15020892"
         id="tspan1083">routes</tspan></text>
    <rect
       style="opacity:1;fill:#999999;fill-opacity:1;fill-rule:nonzero;stroke:none;stroke-width:3.57328415;stroke-linecap:round;stroke-linejoin:bevel;stroke-miterlimit:4;stroke-dasharray:none;stroke-opacity:0.47843137;paint-order:markers fill stroke"
       id="rect911-3-0-2"
       width="41.124016"
       height="12.748323"
       x="85.535645"
       y="255.33833" />
    <text
       xml:space="preserve"
       style="font-style:normal;font-weight:normal;font-size:6.00835705px;line-height:1.25;font-family:sans-serif;letter-spacing:0px;word-spacing:0px;fill:#ffffff;fill-opacity:1;stroke:none;stroke-width:0.15020892"
       x="87.399719"
       y="264.03061"
       id="text819-40-9-6-3-9"><tspan
         sodipodi:role="line"
         x="87.399719"
         y="264.03061"
         style="font-style:normal;font-variant:normal;font-weight:normal;font-stretch:normal;font-family:HelveticaNeue;-inkscape-font-specification:HelveticaNeue;fill:#ffffff;stroke-width:0.15020892"
         id="tspan1020-2">Traffic data</tspan></text>
    <path
       style="opacity:1;fill:#00aa44;fill-opacity:1;fill-rule:nonzero;stroke:none;stroke-width:4.30200005;stroke-linecap:round;stroke-linejoin:bevel;stroke-miterlimit:4;stroke-dasharray:none;stroke-opacity:0.47843137;paint-order:markers fill stroke"
       id="path2568"
       d="m 109.03394,66.384934 c 0,0.973325 0,1.946648 0,2.919973 0,2.715803 -3.84073,2.715803 -3.84073,0 v 0 c 0,-0.973325 0,-1.946648 0,-2.919973 0,-2.715803 3.84073,-2.715803 3.84073,0 z"
       inkscape:connector-curvature="0" />
    <path
       style="opacity:1;fill:#00aa44;fill-opacity:1;fill-rule:nonzero;stroke:none;stroke-width:4.30200005;stroke-linecap:round;stroke-linejoin:bevel;stroke-miterlimit:4;stroke-dasharray:none;stroke-opacity:0.47843137;paint-order:markers fill stroke"
       id="path2570"
       d="m 109.03394,77.053619 c 0,0.893659 0,1.787319 0,2.680978 0,2.715802 -3.84073,2.715802 -3.84073,0 v 0 c 0,-0.893659 0,-1.787319 0,-2.680978 0,-2.715805 3.84073,-2.715805 3.84073,0 z"
       inkscape:connector-curvature="0" />
    <path
       style="opacity:1;fill:#00aa44;fill-opacity:1;fill-rule:nonzero;stroke:none;stroke-width:5.24961519;stroke-linecap:round;stroke-linejoin:bevel;stroke-miterlimit:4;stroke-dasharray:none;stroke-opacity:0.47843137;paint-order:markers fill stroke"
       id="path2572"
       d="m 109.03394,89.57195 c 0,1.449347 0,2.898689 0,4.348036 0,1.350259 0,2.700519 0,4.05078 0,0.375676 0,0.751354 0,1.127032 0,4.044012 -3.84073,4.044012 -3.84073,0 v 0 c 0,-0.375678 0,-0.751356 0,-1.127032 0,-1.350261 0,-2.700521 0,-4.05078 0,-1.449347 0,-2.898689 0,-4.348036 0,-4.04401 3.84073,-4.04401 3.84073,0 z"
       inkscape:connector-curvature="0" />
    <text
       xml:space="preserve"
       style="font-style:normal;font-weight:normal;font-size:6.00835705px;line-height:1.25;font-family:sans-serif;letter-spacing:0px;word-spacing:0px;fill:#ffffff;fill-opacity:1;stroke:none;stroke-width:0.15020892"
       x="94.968689"
       y="190.36714"
       id="text819-3-3"><tspan
         sodipodi:role="line"
         id="tspan817-7-7"
         x="94.968689"
         y="190.36714"
         style="font-style:normal;font-variant:normal;font-weight:normal;font-stretch:normal;font-family:HelveticaNeue;-inkscape-font-specification:HelveticaNeue;fill:#ffffff;stroke-width:0.15020892">Database</tspan></text>
    <rect
       style="opacity:1;fill:#ffffff;fill-opacity:1;fill-rule:nonzero;stroke:#4d4d4d;stroke-width:1.58562613;stroke-miterlimit:4;stroke-dasharray:4.75687841, 1.58562615;stroke-dashoffset:8.80000019;stroke-opacity:1;paint-order:markers fill stroke"
       id="rect842-27"
       width="104.77137"
       height="138.81602"
       x="220.7326"
       y="72.273003" />
    <text
       xml:space="preserve"
       style="font-style:normal;font-weight:normal;font-size:6.00835705px;line-height:1.25;font-family:sans-serif;letter-spacing:0px;word-spacing:0px;fill:#4d4d4d;fill-opacity:1;stroke:none;stroke-width:0.15020892"
       x="250.70856"
       y="206.39671"
       id="text819-3-5"><tspan
         sodipodi:role="line"
         id="tspan817-7-2"
         x="250.70856"
         y="206.39671"
         style="font-style:normal;font-variant:normal;font-weight:normal;font-stretch:normal;font-family:HelveticaNeue;-inkscape-font-specification:HelveticaNeue;fill:#4d4d4d;fill-opacity:1;stroke-width:0.15020892">Shared classes</tspan></text>
    <rect
       style="opacity:1;fill:#ffffff;fill-opacity:1;fill-rule:nonzero;stroke:#4d4d4d;stroke-width:0.40544042;stroke-miterlimit:4;stroke-dasharray:1.21632127, 0.40544042;stroke-dashoffset:8.80000019;stroke-opacity:1;paint-order:markers fill stroke"
       id="rect842-27-3"
       width="51.75465"
       height="18.373224"
       x="244.46709"
       y="170.26196" />
    <text
       xml:space="preserve"
       style="font-style:normal;font-weight:normal;font-size:6.00835705px;line-height:1.25;font-family:sans-serif;letter-spacing:0px;word-spacing:0px;fill:#4d4d4d;fill-opacity:1;stroke:none;stroke-width:0.15020892"
       x="256.22305"
       y="181.27774"
       id="text819-3-5-0"><tspan
         sodipodi:role="line"
         id="tspan817-7-2-9"
         x="256.22305"
         y="181.27774"
         style="font-style:normal;font-variant:normal;font-weight:normal;font-stretch:normal;font-family:HelveticaNeue;-inkscape-font-specification:HelveticaNeue;fill:#4d4d4d;fill-opacity:1;stroke-width:0.15020892">MapPoint</tspan></text>
    <rect
       style="opacity:1;fill:#ffffff;fill-opacity:1;fill-rule:nonzero;stroke:#4d4d4d;stroke-width:0.40544045;stroke-miterlimit:4;stroke-dasharray:1.21632128, 0.40544043;stroke-dashoffset:8.80000019;stroke-opacity:1;paint-order:markers fill stroke"
       id="rect842-27-3-9"
       width="51.75465"
       height="18.373224"
       x="244.24516"
       y="129.96597" />
    <text
       xml:space="preserve"
       style="font-style:normal;font-weight:normal;font-size:6.00835705px;line-height:1.25;font-family:sans-serif;letter-spacing:0px;word-spacing:0px;fill:#4d4d4d;fill-opacity:1;stroke:none;stroke-width:0.15020892"
       x="256.00113"
       y="140.98177"
       id="text819-3-5-0-6"><tspan
         sodipodi:role="line"
         id="tspan817-7-2-9-0"
         x="256.00113"
         y="140.98177"
         style="font-style:normal;font-variant:normal;font-weight:normal;font-stretch:normal;font-family:HelveticaNeue;-inkscape-font-specification:HelveticaNeue;fill:#4d4d4d;fill-opacity:1;stroke-width:0.15020892">PathPart</tspan></text>
    <rect
       style="opacity:1;fill:#ffffff;fill-opacity:1;fill-rule:nonzero;stroke:#4d4d4d;stroke-width:0.40544048;stroke-miterlimit:4;stroke-dasharray:1.21632129, 0.40544044;stroke-dashoffset:8.80000019;stroke-opacity:1;paint-order:markers fill stroke"
       id="rect842-27-3-9-4"
       width="51.75465"
       height="18.373224"
       x="243.82698"
       y="88.539459" />
    <text
       xml:space="preserve"
       style="font-style:normal;font-weight:normal;font-size:6.00835705px;line-height:1.25;font-family:sans-serif;letter-spacing:0px;word-spacing:0px;fill:#4d4d4d;fill-opacity:1;stroke:none;stroke-width:0.15020892"
       x="263.52051"
       y="100.08442"
       id="text819-3-5-0-6-7"><tspan
         sodipodi:role="line"
         id="tspan817-7-2-9-0-6"
         x="263.52051"
         y="100.08442"
         style="font-style:normal;font-variant:normal;font-weight:normal;font-stretch:normal;font-family:HelveticaNeue;-inkscape-font-specification:HelveticaNeue;fill:#4d4d4d;fill-opacity:1;stroke-width:0.15020892">Path</tspan></text>
    <path
       style="opacity:1;fill:#000080;fill-opacity:1;fill-rule:nonzero;stroke:none;stroke-width:1;stroke-miterlimit:4;stroke-dasharray:none;stroke-dashoffset:37.79527664;stroke-opacity:1;paint-order:markers fill stroke"
       id="path2798"
       d="m 268.11335,107.42611 c -0.4717,0.43827 -0.7897,1.02808 -1.15644,1.5544 -0.56179,0.8261 -1.33964,1.43034 -2.15122,1.99043 -0.24353,0.16772 -0.52018,0.29669 -0.74102,0.49718 -0.0136,0.0124 -0.0419,0.0605 -0.0307,0.0459 0.1355,-0.17818 0.0912,-0.0904 0.12601,-0.3323 -0.24161,-0.53284 0.64139,0.36924 0.67584,0.40445 0.26911,0.25032 0.48519,0.55597 0.78055,0.77902 0.19346,0.1461 0.32311,0.19449 0.5426,0.30032 0.5936,0.24028 1.16713,0.50466 1.71191,0.84169 0.24061,0.12312 0.49636,0.4537 0.6989,0.52972 -0.0698,-0.13111 -0.20056,0.0293 -0.27723,-0.0229 -0.0262,-0.0179 0.0508,-0.0382 0.0757,-0.058 0.0425,-0.0337 0.0836,-0.069 0.12639,-0.10241 0.64847,-0.50618 -0.28173,0.23036 0.42376,-0.3301 0.47508,-0.36763 0.95483,-0.7283 1.44417,-1.0773 0.33579,-0.19533 0.62596,-0.45499 0.95637,-0.65707 0.39719,-0.18451 0.83394,-0.25058 1.23587,-0.42542 0.25873,-0.1234 0.4437,-0.29282 0.53363,-0.56407 0.003,-0.0194 -0.0582,-0.0606 -0.0932,-0.058 -0.0124,7.9e-4 -0.0151,0.0291 -0.027,0.0257 -0.0588,-0.0168 -0.10991,-0.0536 -0.16486,-0.0804 -0.39966,-0.13648 -0.79058,-0.28296 -1.16565,-0.47829 -0.40444,-0.22742 -0.76208,-0.52185 -1.11787,-0.81657 -0.39293,-0.23252 -0.70577,-0.56953 -1.07423,-0.8332 -0.22699,-0.17706 -0.46556,-0.35955 -0.73253,-0.47287 -0.0283,-0.008 -0.0566,-0.0164 -0.0849,-0.0246 -0.75004,-0.24968 -0.39695,-1.31041 0.35309,-1.06074 v 0 c 0.0671,0.0236 0.13425,0.0472 0.20137,0.0707 0.32817,0.15759 0.64101,0.35412 0.92274,0.58494 0.38261,0.28369 0.72184,0.62148 1.12802,0.87508 0.29491,0.24473 0.58857,0.49142 0.92078,0.68568 0.37118,0.1934 0.76441,0.32016 1.15398,0.4723 0.67268,0.34819 1.00518,0.73646 0.81968,1.52191 -0.22879,0.54196 -0.59619,0.94047 -1.14049,1.1833 -0.3579,0.14669 -0.72699,0.25665 -1.09979,0.35706 -0.31059,0.16903 -0.55817,0.44342 -0.87585,0.60472 -0.47376,0.3379 -0.93895,0.68597 -1.3983,1.04277 -0.29249,0.23199 -0.72432,0.6579 -1.1027,0.71324 -0.10785,0.0158 -0.21728,-0.0173 -0.32591,-0.0259 -0.34626,-0.15156 -0.60884,-0.39553 -0.90223,-0.62865 -0.51565,-0.31917 -1.06186,-0.56029 -1.62243,-0.79185 -0.36962,-0.18857 -0.46059,-0.21299 -0.78925,-0.46769 -0.3158,-0.24471 -0.55663,-0.56583 -0.84364,-0.84007 -0.3131,-0.34201 -0.78004,-0.48775 -0.96118,-0.9457 -0.002,-0.11878 -0.0299,-0.24026 -0.005,-0.35632 0.11113,-0.51062 0.73693,-0.73936 1.10957,-1.0056 0.70171,-0.48357 1.38307,-0.99356 1.86868,-1.70925 0.45551,-0.65365 0.84453,-1.39588 1.4985,-1.8739 0.67786,-0.40672 1.25304,0.55192 0.57518,0.95864 z"
       inkscape:connector-curvature="0" />
    <path
       style="opacity:1;fill:#000080;fill-opacity:1;fill-rule:nonzero;stroke:none;stroke-width:1;stroke-miterlimit:4;stroke-dasharray:none;stroke-dashoffset:37.79527664;stroke-opacity:1;paint-order:markers fill stroke"
       id="path2800"
       d="m 269.05516,114.81707 c 0,0.49794 0,0.99588 0,1.49381 0,0.56672 0,1.13343 0,1.70014 0,0.75663 0,1.51327 0,2.2699 0.0167,0.73188 -0.13796,1.45136 -0.22326,2.17521 -0.0828,0.71006 -0.12274,1.42381 -0.14314,2.13805 -0.0108,0.4647 -0.009,0.92955 -0.008,1.39434 0,0.4982 0.003,0.9964 0.003,1.4946 2.4e-4,0.43406 2.4e-4,0.86812 2.4e-4,1.30219 0,0.26997 0,0.13584 0,0.40241 0,0.79051 -1.11797,0.7905 -1.11795,-1e-5 v 0 c 0,-0.26656 0,-0.13243 0,-0.40238 -2e-5,-0.43382 0,-0.86764 -2.6e-4,-1.30145 0,-0.49798 0,-0.99596 -0.003,-1.49394 0,-0.47595 -0.003,-0.95198 0.009,-1.42784 0.0214,-0.74737 0.0637,-1.49422 0.15039,-2.23718 0.0806,-0.68026 0.22709,-1.35665 0.21556,-2.044 0,-0.75663 0,-1.51327 0,-2.2699 0,-0.56671 0,-1.13342 0,-1.70014 0,-0.49793 0,-0.99587 0,-1.49381 0,-0.79052 1.11794,-0.79052 1.11794,0 z"
       inkscape:connector-curvature="0" />
    <path
       style="opacity:1;fill:#000080;fill-opacity:1;fill-rule:nonzero;stroke:none;stroke-width:1;stroke-miterlimit:4;stroke-dasharray:none;stroke-dashoffset:37.79527664;stroke-opacity:1;paint-order:markers fill stroke"
       id="path2802"
       d="m 270.75564,149.05036 c -0.49946,0.80159 -1.13779,1.49569 -1.79526,2.16788 -0.51027,0.4581 -0.95445,0.95749 -1.31609,1.53878 -0.26672,0.50739 -0.406,1.07034 -0.52215,1.62852 -0.0402,0.39396 -0.33925,0.72194 -0.3542,1.11632 0.0347,-0.0172 0.24109,0.25054 0.30022,0.32107 0.38643,0.40362 0.77836,0.8117 1.2132,1.1643 0.37404,0.32532 0.79854,0.57951 1.2057,0.85828 0.2652,0.215 0.55608,0.37089 0.85564,0.52999 0.2648,0.13255 0.44088,0.34346 0.64143,0.55085 0.0251,0.0259 0.10234,0.0992 0.0836,0.0685 -0.10633,-0.17496 -0.1642,-0.0639 -0.07,-0.18086 0.69318,-0.37592 1.33742,-0.8401 1.95361,-1.33053 0.42129,-0.31594 0.83095,-0.64484 1.24364,-0.97121 0.3352,-0.28558 0.77359,-0.38169 1.14438,-0.59769 0.31459,-0.21902 0.63767,-0.4644 0.85524,-0.78513 0.0714,-0.10921 0.18833,-0.21056 0.22571,-0.34173 0.003,-0.0117 -0.0169,-0.0408 -0.0214,-0.0295 -0.0151,0.0381 -0.0198,0.0796 -0.0299,0.11935 -0.52218,-0.48296 -1.05381,-0.95642 -1.59811,-1.41439 -0.77983,-0.67249 -1.7259,-1.11208 -2.62776,-1.59392 -0.78523,-0.3871 -1.48757,-0.71052 -1.96543,-1.46951 -0.11419,-0.20693 -0.14676,-0.43832 -0.20786,-0.66248 -0.2042,-0.76369 0.8758,-1.05249 1.08003,-0.2888 v 0 c 0.0339,0.12855 0.06,0.25564 0.0913,0.38425 0.27286,0.56964 1.04058,0.74032 1.52876,1.05049 0.971,0.51876 1.98385,0.99833 2.82136,1.72507 0.64924,0.54784 1.31945,1.09135 1.86468,1.74423 0.0529,0.15805 0.12734,0.31048 0.15883,0.47415 0.0622,0.32334 -0.23355,0.72075 -0.4163,0.9609 -0.33364,0.44313 -0.75274,0.81823 -1.2255,1.10948 -0.3275,0.1712 -0.68151,0.28026 -0.98663,0.4939 -0.41328,0.32295 -0.8187,0.65523 -1.24007,0.96839 -0.72512,0.57356 -1.47976,1.13203 -2.32079,1.52356 -0.15889,0.0341 -0.31441,0.11182 -0.47663,0.1024 -0.57732,-0.0335 -0.64484,-0.35246 -1.03124,-0.62279 -0.33636,-0.17939 -0.66341,-0.36262 -0.96525,-0.59667 -0.43,-0.29957 -0.88394,-0.56618 -1.27963,-0.91392 -0.48535,-0.40112 -0.93316,-0.85132 -1.36186,-1.31147 -0.28543,-0.34178 -0.56854,-0.66917 -0.55573,-1.14474 0.0512,-0.44041 0.24254,-0.82122 0.37295,-1.23972 0.1451,-0.68641 0.32346,-1.3757 0.66866,-1.99204 0.40701,-0.64692 0.89453,-1.2164 1.46471,-1.72753 0.59134,-0.60397 1.16826,-1.22406 1.62358,-1.94064 0.39222,-0.68636 1.36287,-0.1317 0.97068,0.55466 z"
       inkscape:connector-curvature="0" />
    <path
       style="opacity:1;fill:#000080;fill-opacity:1;fill-rule:nonzero;stroke:none;stroke-width:1;stroke-miterlimit:4;stroke-dasharray:none;stroke-dashoffset:37.79527664;stroke-opacity:1;paint-order:markers fill stroke"
       d="m 271.85006,159.34905 c 0,0.46053 0,0.92106 0,1.38158 0,0.48297 0,0.96594 0,1.44892 0,0.51407 0,1.02814 0,1.54222 0,0.52033 0,1.04066 0,1.56099 -0.003,0.46921 -0.0984,0.93066 -0.13698,1.39795 -0.0372,0.5222 -0.0443,1.04594 -0.049,1.56926 -0.003,0.20985 -0.003,0.41971 -0.003,0.62956 0,0.79052 -1.11828,0.79006 -1.11797,-5.3e-4 v 0 c 1.1e-4,-0.21307 1.4e-4,-0.42615 0.003,-0.63922 0.005,-0.55105 0.013,-1.10253 0.0529,-1.65235 0.0369,-0.43641 0.12319,-0.86776 0.13306,-1.30475 0,-0.52033 0,-1.04065 0,-1.56098 0,-0.51408 0,-1.02815 0,-1.54222 0,-0.48298 0,-0.96595 0,-1.44892 0,-0.46053 0,-0.92105 0,-1.38158 0,-0.79052 1.11797,-0.79052 1.11797,0 z"
       inkscape:connector-curvature="0"
       id="path2804" />
    <path
       style="opacity:1;fill:#000080;fill-opacity:1;fill-rule:nonzero;stroke:none;stroke-width:1;stroke-miterlimit:4;stroke-dasharray:none;stroke-dashoffset:37.79527664;stroke-opacity:1;paint-order:markers fill stroke"
       d="m 271.47739,169.41067 c 0,0.20315 0,0.4063 0,0.60946 0,0.79051 -1.11794,0.79051 -1.11794,0 v 0 c 0,-0.20316 0,-0.40631 0,-0.60946 0,-0.79052 1.11794,-0.79052 1.11794,0 z"
       inkscape:connector-curvature="0"
       id="path2806" />
    <path
       style="opacity:1;fill:#ff9955;fill-opacity:1;fill-rule:nonzero;stroke:none;stroke-width:1;stroke-miterlimit:4;stroke-dasharray:none;stroke-dashoffset:37.79527664;stroke-opacity:1;paint-order:markers fill stroke"
       id="path2818"
       d="m 153.45751,55.461021 c 2.01437,-0.03721 4.02507,0.09999 6.03616,0.19467 2.28306,0.04412 4.54666,0.361701 6.82104,0.530783 1.59105,0.09984 3.18578,0.118769 4.77948,0.130067 2.2517,-0.08392 2.87982,0.926753 3.28662,2.983992 0.2066,1.641604 0.18868,3.300439 0.18408,4.951867 -0.01,1.764615 -0.0168,3.529245 -0.0215,5.293884 -0.003,1.112443 -0.004,2.224894 -0.004,3.33734 -7e-5,1.06466 4e-5,2.129317 8e-5,3.193973 5e-5,1.17071 6e-5,2.34142 7e-5,3.51213 1e-5,1.202706 0,2.405414 0,3.60812 0.0245,0.758849 -0.0296,1.52077 0,2.27942 0.005,0.12736 0.005,0.781105 0.20185,0.531924 0.92783,0.132016 1.88765,0.1852 2.83342,0.20557 1.97401,0.0079 3.94807,-0.0086 5.92207,-0.01691 1.38113,-0.0059 2.76228,-0.0093 4.14342,-0.01077 1.06266,-7.94e-4 2.12532,-5.29e-4 3.18799,-5.29e-4 1.30099,7.6e-5 2.60198,1.19e-4 3.90298,1.42e-4 0.94586,1.6e-5 1.89172,1.6e-5 2.83758,1.6e-5 1.00266,-0.0358 2.01502,0.06917 3.01305,-0.04488 1.20159,-0.190876 2.41236,-0.303546 3.62028,-0.446495 1.64319,-0.214172 3.29711,-0.296989 4.95227,-0.336981 1.90824,-0.110226 3.81304,-0.27023 5.72154,-0.376523 1.18812,-0.06441 2.37818,-0.0731 3.56773,-0.07777 0.18135,-2.64e-4 0.3627,-5.29e-4 0.54406,-7.93e-4 1.81053,-0.0027 1.81435,2.557777 0.004,2.560478 v 0 c -0.17929,2.65e-4 -0.35858,5.29e-4 -0.53787,7.94e-4 -1.14545,0.0044 -2.29141,0.01214 -3.43551,0.07384 -1.93546,0.10755 -3.86696,0.272745 -5.80243,0.37974 -1.57512,0.03742 -3.14905,0.11534 -4.7127,0.319974 -1.22465,0.14492 -2.45163,0.260649 -3.67019,0.451906 -1.08551,0.09647 -2.17498,0.04657 -3.26405,0.05721 -0.94588,0 -1.89175,0 -2.83763,-1.6e-5 -1.30103,-2.3e-5 -2.60206,-6.6e-5 -3.90309,-1.43e-4 -1.06173,-6.3e-5 -2.12347,-2.64e-4 -3.18521,5.3e-4 -1.37844,0.0013 -2.75688,0.0048 -4.13531,0.01074 -1.99648,0.0084 -3.99302,0.02556 -5.98951,0.0163 -1.61647,-0.03672 -3.31371,-0.01947 -4.66415,-1.035211 -0.19021,-0.25373 -0.42327,-0.480391 -0.57061,-0.761191 -0.59724,-1.138261 -0.18854,-2.566003 -0.30428,-3.780366 0,-1.202701 0,-2.405401 0,-3.608105 -1e-5,-1.170678 -2e-5,-2.341356 -7e-5,-3.512034 -4e-5,-1.064884 -1.6e-4,-2.129769 -8e-5,-3.194656 2.4e-4,-1.114552 10e-4,-2.229106 0.004,-3.343656 0.005,-1.764747 0.0115,-3.529488 0.0215,-5.294211 0.004,-1.495312 0.0206,-2.996192 -0.14245,-4.484746 -0.0396,-0.252021 -0.18497,-0.517059 -0.10244,-0.758455 0.003,-0.0074 0.28868,-0.06447 0.25793,-0.07856 -0.14745,-0.06758 -0.89832,-0.04631 -0.94148,-0.04646 -1.65121,-0.01177 -3.30349,-0.0321 -4.95188,-0.137107 -2.25095,-0.16868 -4.49142,-0.480455 -6.75086,-0.526513 -1.97102,-0.09281 -3.94149,-0.229127 -5.91572,-0.191836 -1.81054,0 -1.81054,-2.560484 0,-2.560484 z"
       inkscape:connector-curvature="0" />
    <path
       style="opacity:1;fill:#ff9955;fill-opacity:1;fill-rule:nonzero;stroke:none;stroke-width:1;stroke-miterlimit:4;stroke-dasharray:none;stroke-dashoffset:37.79527664;stroke-opacity:1;paint-order:markers fill stroke"
       id="path2824"
       d="m 196.55899,110.08468 c 1.18782,0 2.37563,0 3.56345,0 1.24449,0 2.48898,0 3.73346,0 0.91982,-0.0994 1.91512,-0.32957 2.76263,0.19574 0.21142,0.13104 0.37427,0.32774 0.56141,0.49162 0.59431,0.97777 0.67723,2.15317 0.84733,3.26616 0.15962,1.10601 0.19467,2.22342 0.2173,3.33892 0.008,0.0586 0.0133,0.36844 0.11618,0.4551 0.0291,0.0245 0.0187,-0.0742 0.0339,-0.10908 0.025,-0.0574 0.12565,-0.0113 0.18768,-0.003 0.8645,0.0873 1.73532,0.0703 2.60296,0.0662 0.97746,-0.008 1.95493,-0.014 2.93241,-0.0175 0.9063,-0.003 1.81261,-0.003 2.71891,-0.003 1.04795,-3e-5 2.0959,5e-5 3.14385,1e-4 1.81054,8e-5 1.81043,2.56056 -1.1e-4,2.56048 v 0 c -1.04781,-4e-5 -2.09561,-1.3e-4 -3.14343,-9e-5 -0.90339,1.1e-4 -1.80678,1.1e-4 -2.71018,0.003 -0.97649,0.003 -1.95297,0.01 -2.92944,0.0174 -1.08921,0.005 -2.18887,0.0378 -3.26612,-0.15034 -1.44824,-0.43048 -2.15375,-1.22649 -2.24659,-2.76767 -0.0201,-1.00438 -0.0479,-2.0107 -0.18892,-3.00691 -0.0419,-0.27951 -0.40004,-1.79942 -0.30523,-1.96413 0.019,-0.0331 0.0695,0.0314 0.10431,0.0471 0.0848,0.0301 0.27526,0.13001 0.26697,0.0404 -0.0136,-0.14713 -1.55183,0.11894 -1.70583,0.10006 -1.24448,0 -2.48897,0 -3.73346,0 -1.18782,0 -2.37563,0 -3.56345,0 -1.81053,0 -1.81053,-2.56048 0,-2.56048 z"
       inkscape:connector-curvature="0" />
    <path
       style="opacity:1;fill:#ff9955;fill-opacity:1;fill-rule:nonzero;stroke:none;stroke-width:1;stroke-miterlimit:4;stroke-dasharray:none;stroke-dashoffset:37.79527664;stroke-opacity:1;paint-order:markers fill stroke"
       id="path2826"
       d="m 10.923914,25.895977 c 1.123427,0 2.246853,0 3.37028,0 1.051607,0 2.103215,0 3.154822,0 0.820923,0 1.641845,0 2.462767,0 1.810536,0 1.810536,2.560484 0,2.560484 v 0 c -0.820922,0 -1.641844,0 -2.462767,0 -1.051607,0 -2.103215,0 -3.154822,0 -1.123427,0 -2.246853,0 -3.37028,0 -1.8105351,0 -1.8105351,-2.560484 0,-2.560484 z"
       inkscape:connector-curvature="0" />
    <text
       xml:space="preserve"
       style="font-style:normal;font-weight:normal;font-size:6.00835705px;line-height:1.25;font-family:sans-serif;letter-spacing:0px;word-spacing:0px;fill:#4d4d4d;fill-opacity:1;stroke:none;stroke-width:0.15020892"
       x="25.114399"
       y="28.365292"
       id="text819-3-5-7"><tspan
         sodipodi:role="line"
         id="tspan817-7-2-0"
         x="25.114399"
         y="28.365292"
         style="font-style:normal;font-variant:normal;font-weight:normal;font-stretch:normal;font-family:HelveticaNeue;-inkscape-font-specification:HelveticaNeue;fill:#4d4d4d;fill-opacity:1;stroke-width:0.15020892">= &quot;Makes use of&quot;</tspan></text>
    <path
       style="opacity:1;fill:#00aa44;fill-opacity:1;fill-rule:nonzero;stroke:none;stroke-width:1;stroke-miterlimit:4;stroke-dasharray:none;stroke-dashoffset:37.79527664;stroke-opacity:1;paint-order:markers fill stroke"
       id="path2826-1"
       d="m 10.923914,32.775148 c 1.123427,0 2.246853,0 3.37028,0 1.051607,0 2.103215,0 3.154822,0 0.820923,0 1.641845,0 2.462767,0 1.810536,0 1.810536,2.560484 0,2.560484 v 0 c -0.820922,0 -1.641844,0 -2.462767,0 -1.051607,0 -2.103215,0 -3.154822,0 -1.123427,0 -2.246853,0 -3.37028,0 -1.810535,0 -1.810535,-2.560484 0,-2.560484 z"
       inkscape:connector-curvature="0" />
    <text
       xml:space="preserve"
       style="font-style:normal;font-weight:normal;font-size:6.00835705px;line-height:1.25;font-family:sans-serif;letter-spacing:0px;word-spacing:0px;fill:#4d4d4d;fill-opacity:1;stroke:none;stroke-width:0.15020892"
       x="25.114393"
       y="35.244465"
       id="text819-3-5-7-8"><tspan
         sodipodi:role="line"
         id="tspan817-7-2-0-6"
         x="25.114393"
         y="35.244465"
         style="font-style:normal;font-variant:normal;font-weight:normal;font-stretch:normal;font-family:HelveticaNeue;-inkscape-font-specification:HelveticaNeue;fill:#4d4d4d;fill-opacity:1;stroke-width:0.15020892">= &quot;Accesses&quot;</tspan></text>
    <rect
       style="opacity:1;fill:#4d4d4d;fill-opacity:1;fill-rule:nonzero;stroke:none;stroke-width:5.2700305;stroke-linecap:round;stroke-linejoin:bevel;stroke-miterlimit:4;stroke-dasharray:none;stroke-opacity:0.47843137;paint-order:markers fill stroke"
       id="rect842-29"
       width="76.764915"
       height="26.740355"
       x="109.0515"
       y="136.9917" />
    <text
       xml:space="preserve"
       style="font-style:normal;font-weight:normal;font-size:6.00835705px;line-height:1.25;font-family:sans-serif;letter-spacing:0px;word-spacing:0px;fill:#ffffff;fill-opacity:1;stroke:none;stroke-width:0.15020892"
       x="129.59163"
       y="151.65338"
       id="text819-90"><tspan
         sodipodi:role="line"
         id="tspan817-31"
         x="129.59163"
         y="151.65338"
         style="font-style:normal;font-variant:normal;font-weight:normal;font-stretch:normal;font-family:HelveticaNeue;-inkscape-font-specification:HelveticaNeue;fill:#ffffff;stroke-width:0.15020892">Route finding</tspan></text>
    <path
       style="opacity:1;fill:#00aa44;fill-opacity:1;fill-rule:nonzero;stroke:none;stroke-width:1;stroke-miterlimit:4;stroke-dasharray:none;stroke-dashoffset:37.79527664;stroke-opacity:1;paint-order:markers fill stroke"
       id="path940"
       d="m 71.686309,124.15878 c 0,0.97332 0,1.94665 0,2.91997 0,0.90678 0,1.81357 0,2.72035 0,0.85499 0,1.70998 0,2.56498 0,0.14205 0,0.28409 0,0.42614 0,1.81054 -2.560484,1.81054 -2.560484,0 v 0 c 0,-0.14205 0,-0.28409 0,-0.42614 0,-0.855 0,-1.70999 0,-2.56498 0,-0.90678 0,-1.81357 0,-2.72035 0,-0.97332 0,-1.94665 0,-2.91997 0,-1.81054 2.560484,-1.81054 2.560484,0 z"
       inkscape:connector-curvature="0" />
    <path
       style="opacity:1;fill:#00aa44;fill-opacity:1;fill-rule:nonzero;stroke:none;stroke-width:1;stroke-miterlimit:4;stroke-dasharray:none;stroke-dashoffset:37.79527664;stroke-opacity:1;paint-order:markers fill stroke"
       id="path942"
       d="m 71.686309,139.52168 c 0,1.09951 0,2.19903 0,3.29854 0,1.054 0,2.10801 0,3.16201 0,0.86786 0,1.73571 0,2.60356 0,0.28356 0,0.56711 0,0.85067 0,1.81054 -2.560484,1.81054 -2.560484,0 v 0 c 0,-0.28356 0,-0.56711 0,-0.85067 0,-0.86785 0,-1.7357 0,-2.60356 0,-1.054 0,-2.10801 0,-3.16201 0,-1.09951 0,-2.19903 0,-3.29854 0,-1.81053 2.560484,-1.81053 2.560484,0 z"
       inkscape:connector-curvature="0" />
    <path
       style="opacity:1;fill:#00aa44;fill-opacity:1;fill-rule:nonzero;stroke:none;stroke-width:1;stroke-miterlimit:4;stroke-dasharray:none;stroke-dashoffset:37.79527664;stroke-opacity:1;paint-order:markers fill stroke"
       id="path944"
       d="m 71.6104,155.56241 c -0.189119,0.96553 -0.254233,1.94757 -0.304533,2.92819 -0.118687,0.90091 -0.324996,1.78379 -0.403696,2.69002 -0.06314,0.90579 -0.0678,1.81424 -0.07208,2.7218 -0.0011,0.5867 -7.93e-4,0.29408 -7.93e-4,0.87789 1.58e-4,1.81053 -2.560326,1.81075 -2.560484,2.2e-4 v 0 c -4.8e-5,-0.59096 -2.65e-4,-0.29421 7.93e-4,-0.89026 0.0047,-0.98004 0.01072,-1.96108 0.08234,-2.93901 0.08064,-0.87307 0.239374,-1.73092 0.396811,-2.59274 0.05743,-1.10485 0.135798,-2.21086 0.350846,-3.29826 0.355076,-1.77538 2.865837,-1.27323 2.510761,0.50215 z"
       inkscape:connector-curvature="0" />
    <path
       style="opacity:1;fill:#00aa44;fill-opacity:1;fill-rule:nonzero;stroke:none;stroke-width:1;stroke-miterlimit:4;stroke-dasharray:none;stroke-dashoffset:37.79527664;stroke-opacity:1;paint-order:markers fill stroke"
       id="path946"
       d="m 71.25956,171.95448 c 0.05702,1.26103 -0.126556,2.5101 -0.264827,3.75964 -0.10418,0.91735 -0.138925,1.83995 -0.156496,2.76234 -0.0098,0.70444 -0.0086,1.40898 -0.0082,2.11347 0.0011,1.81054 -2.559347,1.81214 -2.560484,0.002 v 0 c -5.3e-4,-0.72144 -0.0016,-1.44292 0.0087,-2.16431 0.01939,-1.00005 0.05864,-2.00026 0.171567,-2.99483 0.128045,-1.15627 0.306279,-2.31083 0.249282,-3.47792 0,-1.81053 2.560484,-1.81053 2.560484,0 z"
       inkscape:connector-curvature="0" />
    <path
       style="opacity:1;fill:#00aa44;fill-opacity:1;fill-rule:nonzero;stroke:none;stroke-width:1;stroke-miterlimit:4;stroke-dasharray:none;stroke-dashoffset:37.79527664;stroke-opacity:1;paint-order:markers fill stroke"
       id="path948"
       d="m 138.25889,126.71926 c 0.0551,1.09938 -0.0659,2.1854 -0.20336,3.27372 -0.0818,0.69877 -0.0446,0.35505 -0.11233,1.0311 -0.18122,1.80144 -2.72885,1.54514 -2.54762,-0.2563 v 0 c 0.0732,-0.72538 0.0334,-0.36011 0.11967,-1.09578 0.1242,-0.98272 0.2408,-1.95939 0.18315,-2.95274 0,-1.81053 2.56049,-1.81053 2.56049,0 z"
       inkscape:connector-curvature="0" />
    <path
       style="opacity:1;fill:#00aa44;fill-opacity:1;fill-rule:nonzero;stroke:none;stroke-width:1;stroke-miterlimit:4;stroke-dasharray:none;stroke-dashoffset:37.79527664;stroke-opacity:1;paint-order:markers fill stroke"
       id="path950"
       d="m 137.83214,135.68096 c 0,0.46528 0,0.93057 0,1.39585 0,1.81053 -2.56048,1.81053 -2.56048,0 v 0 c 0,-0.46528 0,-0.93057 0,-1.39585 0,-1.81054 2.56048,-1.81054 2.56048,0 z"
       inkscape:connector-curvature="0" />
    <path
       style="opacity:1;fill:#00aa44;fill-opacity:1;fill-rule:nonzero;stroke:none;stroke-width:1;stroke-miterlimit:4;stroke-dasharray:none;stroke-dashoffset:37.79527664;stroke-opacity:1;paint-order:markers fill stroke"
       id="path952"
       d="m 138.25889,165.12652 c 0,0.63797 0,1.27593 0,1.9139 0,1.81054 -2.56049,1.81054 -2.56049,0 v 0 c 0,-0.63797 0,-1.27593 0,-1.9139 0,-1.81054 2.56049,-1.81054 2.56049,0 z"
       inkscape:connector-curvature="0" />
    <path
       style="opacity:1;fill:#00aa44;fill-opacity:1;fill-rule:nonzero;stroke:none;stroke-width:1;stroke-miterlimit:4;stroke-dasharray:none;stroke-dashoffset:37.79527664;stroke-opacity:1;paint-order:markers fill stroke"
       id="path954"
       d="m 138.18298,172.6323 c -0.17296,0.90576 -0.25118,1.82511 -0.30506,2.74446 -0.0464,0.98483 -0.0465,1.97112 -0.0486,2.95682 -0.004,1.81054 -2.56441,1.80496 -2.56047,-0.006 v 0 c 0.002,-1.03424 0.003,-2.06911 0.0531,-3.10238 0.0618,-1.03714 0.15281,-2.07407 0.35032,-3.09548 0.35507,-1.77538 2.86583,-1.27323 2.51076,0.50215 z"
       inkscape:connector-curvature="0" />
  </g>
</svg>
